<?xml version="1.0" encoding="UTF-8"?>
<svg id="Layer_2" data-name="Layer 2" xmlns="http://www.w3.org/2000/svg" xmlns:xlink="http://www.w3.org/1999/xlink" viewBox="0 0 88.61 40">
  <defs>
    <style>
      .cls-1, .cls-2, .cls-3, .cls-4 {
        fill: none;
      }

      .cls-5 {
        fill: #fffdea;
      }

      .cls-2 {
        stroke-dasharray: 2.95 1.95;
      }

      .cls-2, .cls-3, .cls-4 {
        stroke: #999;
      }

      .cls-3 {
        stroke-dasharray: 2.92 1.92;
      }

      .cls-6 {
        fill: #211f21;
      }

      .cls-7 {
        letter-spacing: 0em;
      }

      .cls-8 {
        letter-spacing: -.18em;
      }

      .cls-9 {
        fill: #231f20;
        font-family: OnulSijak-Regular-KSCpc-EUC-H, OnulSijak;
        font-size: 17.82px;
      }

      .cls-10 {
        clip-path: url(#clippath);
      }
    </style>
    <clipPath id="clippath">
      <rect class="cls-1" width="88.61" height="40"/>
    </clipPath>
  </defs>
  <g id="Layer_1-2" data-name="Layer 1">
    <g>
      <g class="cls-10">
        <path class="cls-6" d="M88.61,10.16c0-5.23-3.04-9.55-6.96-10.16H6.96C3.04.62,0,4.93,0,10.16,0,13.39,1.16,16.25,2.97,18.12v4.05c-1.64,1.88-2.69,4.61-2.69,7.66,0,5.23,3.04,9.54,6.96,10.16h74.13c3.92-.62,6.96-4.93,6.96-10.16,0-3.06-1.04-5.79-2.69-7.66v-4.05c1.81-1.88,2.97-4.73,2.97-7.96"/>
        <rect class="cls-5" x="8.06" y="3" width="72.55" height="33" rx="1" ry="1"/>
        <line class="cls-3" x1="11.56" y1="10.78" x2="11.56" y2="29.18"/>
        <line class="cls-2" x1="15.89" y1="32.5" x2="73.76" y2="32.5"/>
        <line class="cls-3" x1="77.11" y1="28.22" x2="77.11" y2="9.82"/>
        <line class="cls-2" x1="72.78" y1="6.5" x2="14.91" y2="6.5"/>
        <path class="cls-4" d="M13.94,6.5h-1.48c-.5,0-.9.4-.9.9v1.46M77.11,8.86v-1.46c0-.5-.4-.9-.9-.9h-1.48M74.73,32.5h1.48c.5,0,.9-.4.9-.9v-1.46M11.56,30.14v1.46c0,.5.4.9.9.9h1.48"/>
      </g>
      <text class="cls-9" transform="translate(28 24.69) scale(1 1.01)"><tspan class="cls-8" x="0" y="0">해</tspan><tspan class="cls-7" x="14.54" y="0">안</tspan></text>
    </g>
  </g>
</svg>