<?xml version="1.0" encoding="UTF-8"?>
<svg id="Layer_2" data-name="Layer 2" xmlns="http://www.w3.org/2000/svg" xmlns:xlink="http://www.w3.org/1999/xlink" viewBox="0 0 500 70">
  <defs>
    <style>
      .cls-1, .cls-2, .cls-3, .cls-4 {
        fill: none;
      }

      .cls-2, .cls-3, .cls-4 {
        stroke: #757575;
      }

      .cls-5 {
        fill: #e3e3e0;
      }

      .cls-3 {
        stroke-dasharray: 2.89 1.89;
      }

      .cls-4 {
        stroke-dasharray: 3.01 2.01;
      }

      .cls-6 {
        clip-path: url(#clippath);
      }
    </style>
    <clipPath id="clippath">
      <rect class="cls-1" width="500" height="70"/>
    </clipPath>
  </defs>
  <g id="Layer_2-2" data-name="Layer 2">
    <g class="cls-6">
      <path d="M500,17.79c0-9.16-5.11-16.7-11.71-17.79H11.71C5.11,1.08,0,8.63,0,17.79c0,5.64,1.96,10.65,4.99,13.93v7.09c-2.77,3.28-4.52,8.06-4.52,13.41,0,9.16,5.11,16.7,11.71,17.79h475.63c6.6-1.08,11.71-8.63,11.71-17.79,0-5.35-1.76-10.13-4.52-13.41v-7.09c3.04-3.28,4.99-8.28,4.99-13.93"/>
      <rect class="cls-5" x="16.09" y="8" width="468" height="54" rx="2" ry="2"/>
      <line class="cls-3" x1="19.5" y1="16.83" x2="19.5" y2="54.11"/>
      <line class="cls-4" x1="25.02" y1="58.5" x2="475.99" y2="58.5"/>
      <line class="cls-3" x1="480.5" y1="53.17" x2="480.5" y2="15.89"/>
      <line class="cls-4" x1="474.98" y1="11.5" x2="24.01" y2="11.5"/>
      <path class="cls-2" d="M23.01,11.5h-1.51c-.36,0-.7.09-.99.26M479.49,11.76c-.29-.17-.63-.26-.99-.26h-1.51M480.5,14.95v-1.44c0-.36-.1-.7-.26-.99M480.24,57.49c.17-.29.26-.63.26-.99v-1.45M476.99,58.5h1.51c.36,0,.7-.1.99-.26M20.51,58.24c.29.17.63.26.99.26h1.51M19.5,55.06v1.45c0,.36.09.7.26.99M19.76,12.51c-.17.29-.26.63-.26.99v1.44"/>
    </g>
  </g>
</svg>