<?xml version='1.0' encoding='utf-8'?>
<svg xmlns="http://www.w3.org/2000/svg" viewBox="0 0 200 58">
<g transform="translate(6 3)" fill="#b3b3b3">
<polygon points="0,0 0,2 22,1.0" />
<polygon points="22,0 0,1.0 22,2" />
</g>
<g transform="translate(6 53)" fill="#b3b3b3">
<polygon points="0,0 0,2 22,1.0" />
<polygon points="22,0 0,1.0 22,2" />
</g>
<g transform="translate(29 3)" fill="#b3b3b3">
<polygon points="0,0 0,2 22,1.0" />
<polygon points="22,0 0,1.0 22,2" />
</g>
<g transform="translate(29 53)" fill="#b3b3b3">
<polygon points="0,0 0,2 22,1.0" />
<polygon points="22,0 0,1.0 22,2" />
</g>
<g transform="translate(52 3)" fill="#b3b3b3">
<polygon points="0,0 0,2 22,1.0" />
<polygon points="22,0 0,1.0 22,2" />
</g>
<g transform="translate(52 53)" fill="#b3b3b3">
<polygon points="0,0 0,2 22,1.0" />
<polygon points="22,0 0,1.0 22,2" />
</g>
<g transform="translate(75 3)" fill="#b3b3b3">
<polygon points="0,0 0,2 22,1.0" />
<polygon points="22,0 0,1.0 22,2" />
</g>
<g transform="translate(75 53)" fill="#b3b3b3">
<polygon points="0,0 0,2 22,1.0" />
<polygon points="22,0 0,1.0 22,2" />
</g>
<g transform="translate(98 3)" fill="#b3b3b3">
<polygon points="0,0 0,2 22,1.0" />
<polygon points="22,0 0,1.0 22,2" />
</g>
<g transform="translate(98 53)" fill="#b3b3b3">
<polygon points="0,0 0,2 22,1.0" />
<polygon points="22,0 0,1.0 22,2" />
</g>
<g transform="translate(121 3)" fill="#b3b3b3">
<polygon points="0,0 0,2 22,1.0" />
<polygon points="22,0 0,1.0 22,2" />
</g>
<g transform="translate(121 53)" fill="#b3b3b3">
<polygon points="0,0 0,2 22,1.0" />
<polygon points="22,0 0,1.0 22,2" />
</g>
<g transform="translate(144 3)" fill="#b3b3b3">
<polygon points="0,0 0,2 22,1.0" />
<polygon points="22,0 0,1.0 22,2" />
</g>
<g transform="translate(144 53)" fill="#b3b3b3">
<polygon points="0,0 0,2 22,1.0" />
<polygon points="22,0 0,1.0 22,2" />
</g>
<g transform="translate(167 3)" fill="#b3b3b3">
<polygon points="0,0 0,2 22,1.0" />
<polygon points="22,0 0,1.0 22,2" />
</g>
<g transform="translate(167 53)" fill="#b3b3b3">
<polygon points="0,0 0,2 22,1.0" />
<polygon points="22,0 0,1.0 22,2" />
</g>
<g transform="translate(190 3)" fill="#b3b3b3">
<polygon points="0,0 0,2 4,1.0" />
<polygon points="4,0 0,1.0 4,2" />
</g>
<g transform="translate(190 53)" fill="#b3b3b3">
<polygon points="0,0 0,2 4,1.0" />
<polygon points="4,0 0,1.0 4,2" />
</g>
<g transform="translate(8 3) rotate(90)" fill="#b3b3b3">
<polygon points="0,0 0,2 25,1.0" />
<polygon points="25,0 0,1.0 25,2" />
</g>
<g transform="translate(194 3) rotate(90)" fill="#b3b3b3">
<polygon points="0,0 0,2 25,1.0" />
<polygon points="25,0 0,1.0 25,2" />
</g>
<g transform="translate(8 29) rotate(90)" fill="#b3b3b3">
<polygon points="0,0 0,2 25,1.0" />
<polygon points="25,0 0,1.0 25,2" />
</g>
<g transform="translate(194 29) rotate(90)" fill="#b3b3b3">
<polygon points="0,0 0,2 25,1.0" />
<polygon points="25,0 0,1.0 25,2" />
</g>
</svg>