<?xml version="1.0" encoding="UTF-8"?>
<svg id="Layer_2" data-name="Layer 2" xmlns="http://www.w3.org/2000/svg" xmlns:xlink="http://www.w3.org/1999/xlink" viewBox="0 0 71.1 71.1">
  <defs>
    <style>
      .cls-1, .cls-2, .cls-3 {
        fill: none;
      }

      .cls-4 {
        fill: #ffce52;
      }

      .cls-2 {
        stroke-dasharray: 2.79 1.89;
      }

      .cls-2, .cls-3 {
        stroke: #231f20;
        stroke-miterlimit: 10;
        stroke-width: .9px;
      }

      .cls-5 {
        fill: #ffb829;
      }

      .cls-6 {
        clip-path: url(#clippath);
      }

      .cls-7 {
        fill: #eb4a26;
      }
    </style>
    <clipPath id="clippath">
      <rect class="cls-1" x="0" y="0" width="71.1" height="71.1"/>
    </clipPath>
  </defs>
  <g id="Layer_2-2" data-name="Layer 2">
    <g>
      <polygon class="cls-4" points="35.55 2.91 38.78 23.51 51.87 7.28 44.37 26.73 63.82 19.23 47.59 32.32 68.19 35.55 47.59 38.78 63.82 51.87 44.37 44.37 51.87 63.82 38.78 47.59 35.55 68.19 32.32 47.59 19.23 63.82 26.73 44.37 7.28 51.87 23.51 38.78 2.91 35.55 23.51 32.32 7.28 19.23 26.73 26.73 19.23 7.28 32.32 23.51 35.55 2.91"/>
      <polygon class="cls-3" points="35.55 2.91 38.78 23.51 51.87 7.28 44.37 26.73 63.82 19.23 47.59 32.32 68.19 35.55 47.59 38.78 63.82 51.87 44.37 44.37 51.87 63.82 38.78 47.59 35.55 68.19 32.32 47.59 19.23 63.82 26.73 44.37 7.28 51.87 23.51 38.78 2.91 35.55 23.51 32.32 7.28 19.23 26.73 26.73 19.23 7.28 32.32 23.51 35.55 2.91"/>
      <g class="cls-6">
        <path class="cls-7" d="M35.55,41.46c-5.03,0-8.97-2.59-8.97-5.91s3.94-5.91,8.97-5.91,8.97,2.59,8.97,5.91-3.94,5.91-8.97,5.91"/>
        <path class="cls-3" d="M35.55,41.46c-5.03,0-8.97-2.59-8.97-5.91s3.94-5.91,8.97-5.91,8.97,2.59,8.97,5.91-3.94,5.91-8.97,5.91Z"/>
        <path class="cls-5" d="M42.94,35.55c0,2.39-3.31,4.33-7.39,4.33s-7.39-1.94-7.39-4.33,3.31-4.33,7.39-4.33,7.39,1.94,7.39,4.33"/>
        <path class="cls-2" d="M41.31,38.26c-.88.64-2.07,1.13-3.43,1.4"/>
        <path class="cls-2" d="M32.31,39.44c-1.36-.39-2.49-1.02-3.22-1.8"/>
        <path class="cls-2" d="M29.79,32.84c.88-.64,2.07-1.13,3.43-1.4"/>
        <path class="cls-2" d="M38.79,31.66c1.36.39,2.49,1.02,3.22,1.8"/>
        <path class="cls-3" d="M42.58,34.22c.23.42.36.87.36,1.33s-.12.91-.36,1.33M34.16,31.3c.45-.05.92-.08,1.39-.08s.94.03,1.39.08M28.52,36.88c-.23-.42-.36-.87-.36-1.33s.13-.91.36-1.33M36.94,39.8c-.45.05-.92.08-1.39.08s-.94-.03-1.39-.08"/>
      </g>
    </g>
  </g>
</svg>