<?xml version="1.0" encoding="UTF-8"?>
<svg id="Layer_2" data-name="Layer 2" xmlns="http://www.w3.org/2000/svg" viewBox="0 0 804.82 473.57">
  <defs>
    <style>
      .cls-1 {
        fill: #545454;
      }

      .cls-2 {
        fill: #600707;
        stroke: #000;
        stroke-miterlimit: 10;
      }
    </style>
  </defs>
  <g id="Layer_1-2" data-name="Layer 1">
    <g>
      <path class="cls-2" d="M.5,169.88h803.82v297.53c0,3.13-2.54,5.67-5.67,5.67H6.17c-3.13,0-5.67-2.54-5.67-5.67V169.88h0Z"/>
      <path class="cls-2" d="M6.17.75h792.48c3.13,0,5.67,2.54,5.67,5.67v164.14H.5V6.41C.5,3.29,3.04.75,6.17.75Z"/>
      <path d="M5.9.41h792.48c3.13,0,5.67,2.54,5.67,5.67v9.24H.23V6.08C.23,2.95,2.77.41,5.9.41Z"/>
      <g>
        <path d="M6.03,0h792.48c3.13,0,5.67,2.54,5.67,5.67v12.27H.36V5.67C.36,2.54,2.9,0,6.03,0Z"/>
        <g>
          <circle class="cls-1" cx="8.7" cy="8.97" r="5.44"/>
          <circle class="cls-1" cx="22.51" cy="8.97" r="5.44"/>
          <circle class="cls-1" cx="36.32" cy="8.97" r="5.44"/>
          <circle class="cls-1" cx="50.13" cy="8.97" r="5.44"/>
          <circle class="cls-1" cx="63.94" cy="8.97" r="5.44"/>
          <circle class="cls-1" cx="77.75" cy="8.97" r="5.44"/>
          <circle class="cls-1" cx="91.56" cy="8.97" r="5.44"/>
          <circle class="cls-1" cx="105.37" cy="8.97" r="5.44"/>
          <circle class="cls-1" cx="119.18" cy="8.97" r="5.44"/>
          <circle class="cls-1" cx="132.99" cy="8.97" r="5.44"/>
          <circle class="cls-1" cx="146.8" cy="8.97" r="5.44"/>
          <circle class="cls-1" cx="160.61" cy="8.97" r="5.44"/>
          <circle class="cls-1" cx="174.42" cy="8.97" r="5.44"/>
          <circle class="cls-1" cx="188.23" cy="8.97" r="5.44"/>
          <circle class="cls-1" cx="202.04" cy="8.97" r="5.44"/>
          <circle class="cls-1" cx="215.84" cy="8.97" r="5.44"/>
          <circle class="cls-1" cx="229.65" cy="8.97" r="5.44"/>
          <circle class="cls-1" cx="243.46" cy="8.97" r="5.44"/>
          <circle class="cls-1" cx="257.27" cy="8.97" r="5.44"/>
          <circle class="cls-1" cx="271.08" cy="8.97" r="5.44"/>
          <circle class="cls-1" cx="284.89" cy="8.97" r="5.44"/>
          <circle class="cls-1" cx="298.7" cy="8.97" r="5.44"/>
          <circle class="cls-1" cx="312.51" cy="8.97" r="5.44"/>
          <circle class="cls-1" cx="326.32" cy="8.97" r="5.44"/>
          <circle class="cls-1" cx="340.13" cy="8.97" r="5.44"/>
          <circle class="cls-1" cx="353.94" cy="8.97" r="5.44"/>
          <circle class="cls-1" cx="367.75" cy="8.97" r="5.44"/>
          <circle class="cls-1" cx="381.56" cy="8.97" r="5.44"/>
          <circle class="cls-1" cx="395.37" cy="8.97" r="5.44"/>
          <circle class="cls-1" cx="409.18" cy="8.97" r="5.44"/>
          <circle class="cls-1" cx="422.99" cy="8.97" r="5.44"/>
          <circle class="cls-1" cx="436.8" cy="8.97" r="5.44"/>
          <circle class="cls-1" cx="450.61" cy="8.97" r="5.44"/>
          <circle class="cls-1" cx="464.42" cy="8.97" r="5.44"/>
          <circle class="cls-1" cx="478.23" cy="8.97" r="5.44"/>
          <circle class="cls-1" cx="492.04" cy="8.97" r="5.44"/>
          <circle class="cls-1" cx="505.85" cy="8.97" r="5.44"/>
          <circle class="cls-1" cx="519.65" cy="8.97" r="5.44"/>
          <circle class="cls-1" cx="533.46" cy="8.97" r="5.44"/>
          <circle class="cls-1" cx="547.27" cy="8.97" r="5.44"/>
          <circle class="cls-1" cx="561.08" cy="8.97" r="5.44"/>
          <circle class="cls-1" cx="574.89" cy="8.97" r="5.44"/>
          <circle class="cls-1" cx="588.7" cy="8.97" r="5.44"/>
          <circle class="cls-1" cx="602.51" cy="8.97" r="5.44"/>
          <circle class="cls-1" cx="616.32" cy="8.97" r="5.44"/>
          <circle class="cls-1" cx="630.13" cy="8.97" r="5.44"/>
          <circle class="cls-1" cx="643.94" cy="8.97" r="5.44"/>
          <circle class="cls-1" cx="657.75" cy="8.97" r="5.44"/>
          <circle class="cls-1" cx="671.56" cy="8.97" r="5.44"/>
          <circle class="cls-1" cx="685.37" cy="8.97" r="5.44"/>
          <circle class="cls-1" cx="699.18" cy="8.97" r="5.44"/>
          <circle class="cls-1" cx="712.99" cy="8.97" r="5.44"/>
          <circle class="cls-1" cx="726.8" cy="8.97" r="5.44"/>
          <circle class="cls-1" cx="740.61" cy="8.97" r="5.44"/>
          <circle class="cls-1" cx="754.42" cy="8.97" r="5.44"/>
          <circle class="cls-1" cx="768.23" cy="8.97" r="5.44"/>
          <circle class="cls-1" cx="782.04" cy="8.97" r="5.44"/>
          <circle class="cls-1" cx="795.85" cy="8.97" r="5.44"/>
        </g>
      </g>
    </g>
  </g>
</svg>