<?xml version="1.0" encoding="UTF-8"?>
<svg id="Layer_2" data-name="Layer 2" xmlns="http://www.w3.org/2000/svg" xmlns:xlink="http://www.w3.org/1999/xlink" viewBox="0 0 97.24 50">
  <defs>
    <style>
      .cls-1, .cls-2, .cls-3, .cls-4, .cls-5 {
        fill: none;
      }

      .cls-6 {
        fill: #757575;
        font-family: OnulSijak-Regular-KSCpc-EUC-H, OnulSijak;
        font-size: 19.8px;
      }

      .cls-2 {
        stroke-dasharray: 2.95 1.95;
      }

      .cls-2, .cls-3, .cls-4, .cls-5 {
        stroke: #231f20;
      }

      .cls-3 {
        stroke-width: 1.11px;
      }

      .cls-4 {
        stroke-dasharray: 3.06 2.06;
      }

      .cls-7 {
        clip-path: url(#clippath-1);
      }

      .cls-8 {
        clip-path: url(#clippath-2);
      }

      .cls-9 {
        letter-spacing: 0em;
      }

      .cls-10 {
        fill: #b3b2b3;
      }

      .cls-11 {
        opacity: .3;
      }

      .cls-12 {
        letter-spacing: -.22em;
      }

      .cls-13 {
        letter-spacing: -.18em;
      }

      .cls-14 {
        letter-spacing: -.2em;
      }

      .cls-15 {
        clip-path: url(#clippath);
      }
    </style>
    <clipPath id="clippath">
      <rect class="cls-1" width="97.24" height="50"/>
    </clipPath>
    <clipPath id="clippath-1">
      <rect class="cls-1" width="97.24" height="50"/>
    </clipPath>
    <clipPath id="clippath-2">
      <rect class="cls-1" x="-6" y="-5" width="109.24" height="53"/>
    </clipPath>
  </defs>
  <g id="Layer_3" data-name="Layer 3">
    <g class="cls-15">
      <rect class="cls-10" x=".56" y=".56" width="96.13" height="48.89"/>
      <g class="cls-7">
        <rect class="cls-3" x=".56" y=".56" width="96.13" height="48.89"/>
        <g class="cls-11">
          <g class="cls-8">
            <line class="cls-4" x1="3.5" y1="8.09" x2="3.5" y2="42.94"/>
            <line class="cls-2" x1="7.93" y1="46.5" x2="90.29" y2="46.5"/>
            <line class="cls-4" x1="93.74" y1="41.91" x2="93.74" y2="7.06"/>
            <line class="cls-2" x1="89.32" y1="3.5" x2="6.95" y2="3.5"/>
            <path class="cls-5" d="M5.97,3.5h-1.48c-.55,0-1,.45-1,1v1.53M93.74,6.03v-1.53c0-.55-.45-1-1-1h-1.48M91.27,46.5h1.48c.55,0,1-.45,1-1v-1.53M3.5,43.97v1.53c0,.55.45,1,1,1h1.48"/>
          </g>
        </g>
      </g>
      <text class="cls-6" transform="translate(13.1 31) scale(1 1.01)"><tspan class="cls-13" x="0" y="0">삼</tspan><tspan class="cls-12" x="16.16" y="0">재</tspan><tspan class="cls-14" x="31.5" y="0">막</tspan><tspan class="cls-9" x="47.32" y="0">기</tspan></text>
    </g>
  </g>
</svg>